<svg width="25" height="25" viewBox="0 0 25 25" fill="none" xmlns="http://www.w3.org/2000/svg">
<path d="M15.862 5.50502C17.5869 6.27579 18.995 7.61508 19.8512 9.29916C20.7075 10.9832 20.9599 12.9101 20.5664 14.7579C20.1728 16.6057 19.1572 18.2625 17.689 19.4516C16.2209 20.6407 14.3893 21.29 12.5 21.291C10.884 21.2909 9.30364 20.8163 7.95504 19.926C6.60643 19.0356 5.549 17.7688 4.914 16.2828C4.279 14.7968 4.09439 13.1571 4.3831 11.5671C4.67181 9.9771 5.42112 8.50691 6.53801 7.33902C7.30767 8.41375 8.32327 9.28877 9.50001 9.89102C9.52063 8.56964 9.83254 7.26909 10.4135 6.08211C10.9945 4.89512 11.8302 3.85094 12.861 3.02402C13.6478 4.07921 14.6767 4.92978 15.861 5.50402L15.862 5.50502Z" stroke="white" stroke-width="1.5" stroke-linecap="round" stroke-linejoin="round"/>
<path d="M12.5 18.291C13.4514 18.2907 14.3671 17.9287 15.0616 17.2785C15.7561 16.6283 16.1775 15.7384 16.2404 14.7891C16.3033 13.8398 16.0031 12.902 15.4005 12.1658C14.7979 11.4296 13.938 10.95 12.995 10.824C11.9626 11.7478 11.2823 13.001 11.07 14.37C10.2997 14.1816 9.57458 13.8416 8.937 13.37C8.75185 13.9333 8.70291 14.5324 8.79418 15.1183C8.88545 15.7041 9.11434 16.26 9.46206 16.7402C9.80978 17.2205 10.2664 17.6114 10.7945 17.881C11.3226 18.1506 11.9071 18.2911 12.5 18.291Z" stroke="white" stroke-width="1.5" stroke-linecap="round" stroke-linejoin="round"/>
</svg>
