<svg width="25" height="23" viewBox="0 0 25 23" fill="none" xmlns="http://www.w3.org/2000/svg">
<path d="M4.03478 22.9852H20.9641C23.6218 22.9852 25 21.607 25 18.986V4.01382C25 1.3814 23.6218 0.0146484 20.9641 0.0146484H4.03478C1.37708 0.0146484 0 1.38025 0 4.01382V18.9872C0 21.615 1.37708 22.9852 4.03478 22.9852ZM3.99802 20.5733C3.78159 20.5989 3.56216 20.5748 3.35646 20.5028C3.15077 20.4307 2.96425 20.3126 2.81114 20.1575C2.65802 20.0024 2.54236 19.8144 2.47297 19.6078C2.40359 19.4012 2.38231 19.1814 2.41076 18.9654V7.59493C2.38113 7.37862 2.40159 7.1584 2.47056 6.95126C2.53953 6.74411 2.65517 6.55558 2.80854 6.4002C2.96192 6.24483 3.14894 6.12676 3.35518 6.05512C3.56141 5.98347 3.78135 5.96017 3.99802 5.98699H20.9767C21.1945 5.95929 21.4157 5.9818 21.6234 6.05282C21.8311 6.12383 22.0198 6.24145 22.175 6.39666C22.3302 6.55188 22.4478 6.74057 22.5188 6.94827C22.5898 7.15597 22.6124 7.37718 22.5846 7.59493V18.9654C22.6114 19.1829 22.5883 19.4037 22.5169 19.611C22.4456 19.8183 22.3279 20.0066 22.1729 20.1616C22.0179 20.3166 21.8296 20.4342 21.6224 20.5056C21.4151 20.5769 21.1943 20.6001 20.9767 20.5733H3.99802ZM10.1254 10.2515H10.8478C11.2912 10.2515 11.4382 10.1159 11.4382 9.67721V8.95938C11.4382 8.51605 11.29 8.38512 10.8478 8.38512H10.1254C9.69472 8.38512 9.55116 8.52064 9.55116 8.95938V9.67032C9.54656 10.1159 9.69932 10.2515 10.1254 10.2515ZM14.1613 10.2515H14.8746C15.3179 10.2515 15.4649 10.1159 15.4649 9.67721V8.95938C15.4649 8.51605 15.3168 8.38512 14.8746 8.38512H14.1613C13.718 8.38512 13.571 8.52064 13.571 8.95938V9.67032C13.5699 10.1159 13.7192 10.2515 14.1613 10.2515ZM18.1812 10.2515H18.8944C19.3378 10.2515 19.4848 10.1159 19.4848 9.67721V8.95938C19.4848 8.51605 19.3378 8.38512 18.8944 8.38512H18.1812C17.7379 8.38512 17.5908 8.52064 17.5908 8.95938V9.67032C17.5931 10.1159 17.739 10.2515 18.1846 10.2515H18.1812ZM6.10213 14.2127H6.828C7.27133 14.2127 7.41834 14.0772 7.41834 13.6385V12.9252C7.41834 12.4819 7.27018 12.351 6.828 12.351H6.10213C5.67143 12.351 5.52786 12.4865 5.52786 12.9252V13.6385C5.52442 14.0784 5.67143 14.2127 6.10213 14.2127ZM10.122 14.2127H10.8478C11.2912 14.2127 11.4382 14.0772 11.4382 13.6385V12.9252C11.4382 12.4819 11.29 12.351 10.8478 12.351H10.1254C9.69472 12.351 9.55116 12.4865 9.55116 12.9252V13.6385C9.54656 14.0784 9.69932 14.2127 10.1254 14.2127H10.122ZM14.1579 14.2127H14.8711C15.3145 14.2127 15.4615 14.0772 15.4615 13.6385V12.9252C15.4615 12.4819 15.3133 12.351 14.8711 12.351H14.1579C13.7146 12.351 13.5676 12.4865 13.5676 12.9252V13.6385C13.5699 14.0784 13.7192 14.2127 14.1613 14.2127H14.1579ZM18.1777 14.2127H18.891C19.3343 14.2127 19.4813 14.0772 19.4813 13.6385V12.9252C19.4813 12.4819 19.3343 12.351 18.891 12.351H18.1777C17.7344 12.351 17.5874 12.4865 17.5874 12.9252V13.6385C17.5931 14.0784 17.739 14.2127 18.1846 14.2127H18.1777ZM6.10213 18.1694H6.828C7.27133 18.1694 7.41834 18.0339 7.41834 17.5952V16.8831C7.41834 16.4397 7.27018 16.3088 6.828 16.3088H6.10213C5.67143 16.3088 5.52786 16.4443 5.52786 16.8831V17.5952C5.52442 18.0396 5.67143 18.1694 6.10213 18.1694ZM10.122 18.1694H10.8478C11.2912 18.1694 11.4382 18.0339 11.4382 17.5952V16.8831C11.4382 16.4397 11.29 16.3088 10.8478 16.3088H10.1254C9.69472 16.3088 9.55116 16.4443 9.55116 16.8831V17.5952C9.54656 18.0396 9.69932 18.1694 10.1254 18.1694H10.122ZM14.1579 18.1694H14.8711C15.3145 18.1694 15.4615 18.0339 15.4615 17.5952V16.8831C15.4615 16.4397 15.3133 16.3088 14.8711 16.3088H14.1579C13.7146 16.3088 13.5676 16.4443 13.5676 16.8831V17.5952C13.5699 18.0396 13.7192 18.1694 14.1613 18.1694H14.1579Z" fill="#ffffff"/>
</svg>
