<svg width="30" height="31" viewBox="0 0 30 31" fill="none" xmlns="http://www.w3.org/2000/svg">
<g clip-path="url(#clip0_10587_50668)">
<path d="M30 15.9492C30 7.66495 23.2843 0.949219 15 0.949219C6.71573 0.949219 0 7.66495 0 15.9492C0 24.2335 6.71573 30.9492 15 30.9492C23.2843 30.9492 30 24.2335 30 15.9492Z" fill="white" fill-opacity="0.1"/>
<path d="M15.0039 21.2227C12.0904 21.2227 9.73047 18.8628 9.73047 15.9492C9.73047 13.0356 12.0904 10.6758 15.0039 10.6758C17.6143 10.6758 19.7808 12.5786 20.1983 15.0703H25.5113C25.063 9.65625 20.5322 5.40234 15.0039 5.40234C9.18115 5.40234 4.45703 10.1265 4.45703 15.9492C4.45703 21.772 9.18115 26.4961 15.0039 26.4961C20.5322 26.4961 25.063 22.2422 25.5113 16.8281H20.1939C19.7764 19.3198 17.6143 21.2227 15.0039 21.2227Z" fill="white"/>
</g>
<defs>
<clipPath id="clip0_10587_50668">
<rect width="30" height="30" fill="white" transform="translate(0 0.949219)"/>
</clipPath>
</defs>
</svg>
