<svg width="21" height="21" viewBox="0 0 21 21" fill="none" xmlns="http://www.w3.org/2000/svg">
<path d="M15.9167 5.5C15.6318 5.5 15.3535 5.51625 15.0833 5.54325V3C15.0833 1.61975 13.0325 0.5 10.5 0.5C7.96925 0.5 5.91675 1.61975 5.91675 3V5.545C5.64625 5.517 5.369 5.5 5.08325 5.5C2.5525 5.5 0.5 6.61975 0.5 8V14.6667C0.5 16.0468 2.5525 17.1667 5.08325 17.1667C5.4465 17.1667 5.79375 17.135 6.13175 17.09C6.72025 18.1007 8.45325 18.8333 10.5 18.8333C10.8628 18.8333 11.2113 18.802 11.5487 18.7575C12.1383 19.7675 13.8708 20.5 15.9167 20.5C18.4492 20.5 20.5 19.3802 20.5 18V8C20.5 6.61975 18.4492 5.5 15.9167 5.5ZM10.5 2.16675C12.0828 2.16675 13.143 2.70375 13.4167 2.99975C13.143 3.29625 12.0828 3.83325 10.5 3.83325C8.918 3.83325 7.85775 3.297 7.5835 2.99975C7.85775 2.703 8.918 2.16675 10.5 2.16675ZM5.08325 7.1665C5.38025 7.1665 5.65825 7.186 5.91675 7.21925V8.781C5.65825 8.814 5.38025 8.8335 5.08325 8.8335C3.50125 8.8335 2.441 8.297 2.16675 8.00025C2.441 7.70325 3.50125 7.1665 5.08325 7.1665ZM2.16675 9.92825C2.95925 10.2853 3.97525 10.5 5.08325 10.5C5.3685 10.5 5.646 10.4835 5.91675 10.455V12.1125C5.6605 12.1458 5.3825 12.1663 5.08325 12.1663C3.38825 12.1663 2.34575 11.55 2.16675 11.2727V9.92825ZM2.16675 14.6065V13.2612C2.95925 13.6187 3.97525 13.8335 5.08325 13.8335C5.3685 13.8335 5.646 13.8165 5.91675 13.7885V15.4463C5.6605 15.48 5.3825 15.5 5.08325 15.5C3.38825 15.5 2.34575 14.8843 2.16675 14.6065ZM11.3333 17.1098C11.0763 17.144 10.801 17.167 10.5 17.167C8.805 17.167 7.7625 16.5508 7.5835 16.2735V14.9282C8.376 15.2852 9.3915 15.5 10.5 15.5C10.7865 15.5 11.063 15.4815 11.3333 15.453V17.1098ZM11.3333 13.7762C11.0763 13.8105 10.801 13.8335 10.5 13.8335C8.805 13.8335 7.7625 13.2172 7.5835 12.9395V11.5942C8.376 11.9517 9.3915 12.1665 10.5 12.1665C10.7865 12.1665 11.063 12.148 11.3333 12.1193V13.7762ZM11.3333 10.443C11.0763 10.4773 10.801 10.5 10.5 10.5C8.805 10.5 7.7625 9.88375 7.5835 9.6065V8.26175C8.376 8.6185 9.3915 8.83325 10.5 8.83325C10.7865 8.83325 11.063 8.8145 11.3333 8.78625V10.443ZM11.6818 7.04525C11.33 7.1145 10.9475 7.1665 10.5 7.1665C8.805 7.1665 7.7625 6.55075 7.5835 6.27325V4.9285C8.376 5.285 9.3915 5.5 10.5 5.5C11.6085 5.5 12.6237 5.28575 13.4167 4.92875V5.90675C12.6467 6.1805 12.0365 6.5765 11.6818 7.04525ZM18.8333 17.9405C18.655 18.2173 17.6125 18.8335 15.9167 18.8335C14.2218 18.8335 13.179 18.2173 12.9998 17.94V16.5947C13.7928 16.9522 14.8083 17.167 15.9167 17.167C17.025 17.167 18.0405 16.9523 18.8333 16.5958V17.9405ZM18.8333 14.6075C18.655 14.8842 17.6125 15.5 15.9167 15.5C14.2218 15.5 13.179 14.8843 12.9998 14.6065V13.2612C13.7928 13.6187 14.8083 13.8335 15.9167 13.8335C17.025 13.8335 18.0405 13.6188 18.8333 13.2618V14.6075ZM18.8333 11.274C18.655 11.5503 17.6125 12.1665 15.9167 12.1665C14.2218 12.1665 13.179 11.5503 12.9998 11.273V9.9285C13.7928 10.2852 14.8083 10.5 15.9167 10.5C17.025 10.5 18.0405 10.2852 18.8333 9.92875V11.274ZM15.9167 8.83325C14.3348 8.83325 13.2743 8.29675 12.9998 8C13.2743 7.703 14.3348 7.16625 15.9167 7.16625C17.4995 7.16625 18.5597 7.7035 18.8333 8C18.5597 8.29625 17.4995 8.83325 15.9167 8.83325Z" fill="#62EAD2"/>
</svg>
