<svg width="21" height="21" viewBox="0 0 21 21" fill="none" xmlns="http://www.w3.org/2000/svg">
<path d="M10.4998 0.0834961C12.5601 0.0834961 14.5741 0.694433 16.2871 1.83905C18.0002 2.98367 19.3353 4.61055 20.1237 6.51398C20.9122 8.41741 21.1185 10.5119 20.7165 12.5326C20.3146 14.5532 19.3225 16.4093 17.8657 17.8662C16.4088 19.323 14.5527 20.3151 12.5321 20.717C10.5114 21.119 8.41692 20.9127 6.51349 20.1242C4.61007 19.3358 2.98318 18.0007 1.83856 16.2876C0.693945 14.5746 0.0830078 12.5606 0.0830078 10.5003C0.0830078 7.73762 1.18049 5.08805 3.13403 3.13452C5.08757 1.18098 7.73713 0.0834961 10.4998 0.0834961ZM10.4998 2.16666C8.8516 2.16666 7.24037 2.65542 5.8699 3.57114C4.49944 4.48685 3.43129 5.78839 2.80053 7.31117C2.16978 8.83395 2.00474 10.5096 2.3263 12.1262C2.64786 13.7427 3.44156 15.2276 4.60705 16.3931C5.77253 17.5586 7.25745 18.3523 8.87403 18.6739C10.4906 18.9954 12.1662 18.8304 13.689 18.1996C15.2118 17.5689 16.5133 16.5007 17.429 15.1303C18.3448 13.7598 18.8335 12.1486 18.8335 10.5003C18.8335 8.29011 17.9555 6.1704 16.3926 4.60754C14.8298 3.04467 12.7101 2.16666 10.4998 2.16666ZM14.4929 5.64304C14.6114 5.55502 14.7577 5.51256 14.9049 5.52341C15.0521 5.53427 15.1905 5.59771 15.2949 5.70217C15.3992 5.80662 15.4625 5.94511 15.4732 6.09236C15.4838 6.2396 15.4412 6.38577 15.353 6.50419C13.0819 9.67677 11.8326 11.3772 11.605 11.6055C11.3095 11.8866 10.9158 12.041 10.5079 12.0359C10.1001 12.0308 9.71043 11.8666 9.42203 11.5782C9.13362 11.2898 8.96935 10.9001 8.96424 10.4922C8.95914 10.0844 9.11361 9.69072 9.3947 9.39519C9.78427 9.00699 11.4837 7.75627 14.4929 5.64304ZM16.2296 9.45875C16.4356 9.45875 16.637 9.51984 16.8082 9.63429C16.9795 9.74874 17.113 9.91141 17.1919 10.1017C17.2707 10.2921 17.2913 10.5015 17.2511 10.7035C17.2109 10.9056 17.1117 11.0912 16.9661 11.2368C16.8204 11.3825 16.6348 11.4817 16.4328 11.5219C16.2307 11.5621 16.0213 11.5415 15.831 11.4626C15.6406 11.3838 15.478 11.2503 15.3635 11.079C15.2491 10.9077 15.188 10.7063 15.188 10.5003C15.188 10.2243 15.2976 9.95949 15.4927 9.76419C15.6878 9.56888 15.9525 9.45903 16.2285 9.45875H16.2296ZM4.77115 9.45875C4.97715 9.45875 5.17853 9.51984 5.34982 9.63429C5.52111 9.74874 5.65461 9.91141 5.73344 10.1017C5.81228 10.2921 5.83291 10.5015 5.79272 10.7035C5.75253 10.9056 5.65333 11.0912 5.50766 11.2368C5.36199 11.3825 5.1764 11.4817 4.97435 11.5219C4.7723 11.5621 4.56288 11.5415 4.37255 11.4626C4.18223 11.3838 4.01956 11.2503 3.90511 11.079C3.79065 10.9077 3.72957 10.7063 3.72957 10.5003C3.72957 10.2243 3.83916 9.95949 4.03428 9.76419C4.22939 9.56888 4.49406 9.45903 4.77012 9.45875H4.77115ZM7.18544 5.71275C7.33109 5.85843 7.43027 6.04402 7.47044 6.24606C7.51061 6.4481 7.48997 6.65752 7.41113 6.84783C7.33228 7.03814 7.19878 7.2008 7.0275 7.31524C6.85622 7.42968 6.65485 7.49076 6.44885 7.49076C6.24286 7.49076 6.04149 7.42968 5.87021 7.31524C5.69892 7.2008 5.56542 7.03814 5.48658 6.84783C5.40774 6.65752 5.3871 6.4481 5.42727 6.24606C5.46744 6.04402 5.56662 5.85843 5.71226 5.71275C5.90774 5.51762 6.17265 5.40802 6.44885 5.40802C6.72506 5.40802 6.98997 5.51762 7.18544 5.71275ZM10.4998 3.72903C10.7059 3.72903 10.9072 3.79012 11.0785 3.90457C11.2498 4.01902 11.3833 4.18169 11.4621 4.37202C11.541 4.56234 11.5616 4.77177 11.5214 4.97381C11.4812 5.17586 11.382 5.36145 11.2364 5.50712C11.0907 5.65279 10.9051 5.75199 10.703 5.79218C10.501 5.83237 10.2916 5.81174 10.1012 5.73291C9.91093 5.65407 9.74825 5.52057 9.6338 5.34928C9.51935 5.178 9.45827 4.97662 9.45827 4.77061C9.45827 4.49437 9.568 4.22944 9.76334 4.0341C9.95867 3.83877 10.2236 3.72903 10.4998 3.72903Z" fill="#FFFFFF"/>
</svg>
