<svg width="24" height="26" viewBox="0 0 24 26" fill="none" xmlns="http://www.w3.org/2000/svg">
<path d="M22.9697 7.63037L20.3447 6.09912M22.9697 7.63037V10.2554M22.9697 7.63037L20.3447 9.16162M1.96973 7.63037L4.59473 6.09912M1.96973 7.63037L4.59473 9.16162M1.96973 7.63037V10.2554M12.4697 13.7554L15.0947 12.2241M12.4697 13.7554L9.84473 12.2241M12.4697 13.7554V16.3804M12.4697 24.2554L15.0947 22.7241M12.4697 24.2554V21.6304M12.4697 24.2554L9.84473 22.7241M9.84473 3.03662L12.4697 1.50537L15.0947 3.03662M22.9697 15.5054V18.1304L20.3447 19.6616M4.59473 19.6616L1.96973 18.1304V15.5054" stroke="#13C296" stroke-width="2" stroke-linecap="round" stroke-linejoin="round"/>
</svg>
