<svg width="25" height="21" viewBox="0 0 25 21" fill="none" xmlns="http://www.w3.org/2000/svg">
<path d="M16.1116 7.23877H20.4866M16.1116 10.7388H20.4866M16.1116 14.2388H20.4866M3.86157 19.4888H21.3616C22.8113 19.4888 23.9866 18.3135 23.9866 16.8638V4.61377C23.9866 3.16402 22.8113 1.98877 21.3616 1.98877H3.86157C2.41182 1.98877 1.23657 3.16402 1.23657 4.61377V16.8638C1.23657 18.3135 2.41183 19.4888 3.86157 19.4888ZM10.8616 7.67627C10.8616 8.88439 9.8822 9.86377 8.67407 9.86377C7.46595 9.86377 6.48657 8.88439 6.48657 7.67627C6.48657 6.46815 7.46595 5.48877 8.67407 5.48877C9.8822 5.48877 10.8616 6.46815 10.8616 7.67627ZM12.3711 15.0687C11.2687 15.656 10.0101 15.9888 8.67389 15.9888C7.33763 15.9888 6.0791 15.656 4.97668 15.0687C5.52974 13.563 6.97637 12.4888 8.67389 12.4888C10.3714 12.4888 11.818 13.563 12.3711 15.0687Z" stroke="#3056D3" stroke-width="2" stroke-linecap="round" stroke-linejoin="round"/>
</svg>
