<svg width="25" height="26" viewBox="0 0 25 26" fill="none" xmlns="http://www.w3.org/2000/svg">
<mask id="mask0_9116_11578" style="mask-type:alpha" maskUnits="userSpaceOnUse" x="2" y="2" width="21" height="22">
<path d="M12.5003 2.4541C14.5606 2.4541 16.5746 3.06504 18.2876 4.20966C20.0007 5.35427 21.3358 6.98116 22.1242 8.88459C22.9127 10.788 23.1189 12.8825 22.717 14.9032C22.3151 16.9238 21.323 18.7799 19.8661 20.2368C18.4093 21.6936 16.5532 22.6857 14.5326 23.0876C12.5119 23.4896 10.4174 23.2833 8.51398 22.4948C6.61055 21.7064 4.98367 20.3713 3.83905 18.6582C2.69443 16.9452 2.0835 14.9312 2.0835 12.8709C2.0835 10.1082 3.18098 7.45866 5.13452 5.50512C7.08805 3.55159 9.73762 2.4541 12.5003 2.4541ZM12.5003 4.53726C10.8521 4.53726 9.24086 5.02603 7.87039 5.94174C6.49993 6.85746 5.43178 8.159 4.80102 9.68178C4.17027 11.2046 4.00523 12.8802 4.32679 14.4968C4.64834 16.1133 5.44205 17.5983 6.60754 18.7637C7.77302 19.9292 9.25794 20.7229 10.8745 21.0445C12.4911 21.366 14.1667 21.201 15.6895 20.5702C17.2123 19.9395 18.5138 18.8713 19.4295 17.5009C20.3452 16.1304 20.834 14.5192 20.834 12.8709C20.834 10.6607 19.956 8.54101 18.3931 6.97814C16.8303 5.41527 14.7106 4.53726 12.5003 4.53726ZM16.4934 8.01364C16.6119 7.92562 16.7581 7.88316 16.9054 7.89402C17.0526 7.90487 17.191 7.96832 17.2954 8.07277C17.3997 8.17723 17.463 8.31572 17.4736 8.46296C17.4843 8.6102 17.4417 8.75638 17.3535 8.87479C15.0824 12.0474 13.8331 13.7478 13.6055 13.9761C13.3099 14.2572 12.9163 14.4116 12.5084 14.4065C12.1006 14.4014 11.7109 14.2372 11.4225 13.9488C11.1341 13.6604 10.9698 13.2707 10.9647 12.8628C10.9596 12.455 11.1141 12.0613 11.3952 11.7658C11.7848 11.3776 13.4842 10.1269 16.4934 8.01364ZM18.2301 11.8294C18.4361 11.8294 18.6374 11.8904 18.8087 12.0049C18.98 12.1193 19.1135 12.282 19.1924 12.4723C19.2712 12.6627 19.2918 12.8721 19.2516 13.0741C19.2114 13.2762 19.1122 13.4618 18.9666 13.6074C18.8209 13.7531 18.6353 13.8523 18.4333 13.8925C18.2312 13.9327 18.0218 13.9121 17.8315 13.8332C17.6411 13.7544 17.4785 13.6209 17.364 13.4496C17.2496 13.2783 17.1885 13.0769 17.1885 12.8709C17.1885 12.5949 17.2981 12.3301 17.4932 12.1348C17.6883 11.9395 17.953 11.8296 18.229 11.8294H18.2301ZM6.77164 11.8294C6.97764 11.8294 7.17902 11.8904 7.35031 12.0049C7.5216 12.1193 7.6551 12.282 7.73393 12.4723C7.81277 12.6627 7.83339 12.8721 7.7932 13.0741C7.75301 13.2762 7.65381 13.4618 7.50815 13.6074C7.36248 13.7531 7.17689 13.8523 6.97484 13.8925C6.77279 13.9327 6.56336 13.9121 6.37304 13.8332C6.18272 13.7544 6.02004 13.6209 5.90559 13.4496C5.79114 13.2783 5.73006 13.0769 5.73006 12.8709C5.73006 12.5949 5.83965 12.3301 6.03476 12.1348C6.22988 11.9395 6.49454 11.8296 6.77061 11.8294H6.77164ZM9.18593 8.08336C9.33158 8.22903 9.43075 8.41463 9.47093 8.61667C9.5111 8.81871 9.49046 9.02812 9.41161 9.21843C9.33277 9.40874 9.19927 9.5714 9.02799 9.68584C8.85671 9.80028 8.65534 9.86136 8.44934 9.86136C8.24335 9.86136 8.04198 9.80028 7.87069 9.68584C7.69941 9.5714 7.56591 9.40874 7.48707 9.21843C7.40823 9.02812 7.38759 8.81871 7.42776 8.61667C7.46793 8.41463 7.56711 8.22903 7.71275 8.08336C7.90822 7.88822 8.17314 7.77863 8.44934 7.77863C8.72554 7.77863 8.99046 7.88822 9.18593 8.08336ZM12.5003 6.09964C12.7063 6.09964 12.9077 6.16072 13.079 6.27517C13.2503 6.38962 13.3838 6.5523 13.4626 6.74262C13.5415 6.93295 13.5621 7.14237 13.5219 7.34442C13.4817 7.54647 13.3825 7.73206 13.2368 7.87773C13.0912 8.02339 12.9056 8.12259 12.7035 8.16278C12.5015 8.20297 12.2921 8.18235 12.1017 8.10351C11.9114 8.02468 11.7487 7.89118 11.6343 7.71989C11.5198 7.5486 11.4588 7.34722 11.4588 7.14122C11.4588 6.86497 11.5685 6.60004 11.7638 6.40471C11.9592 6.20937 12.2241 6.09964 12.5003 6.09964Z" fill="#ffffff"/>
</mask>
<g mask="url(#mask0_9116_11578)">
<rect y="0.370605" width="25" height="25" fill="#ffffff"/>
</g>
</svg>
