<svg width="24" height="24" viewBox="0 0 24 24" fill="none" xmlns="http://www.w3.org/2000/svg">
<path d="M12.1104 4.73877V18.7388M8.61035 15.4509L9.6357 16.2199C11.0025 17.2451 13.2185 17.2451 14.5853 16.2199C15.952 15.1948 15.952 13.5327 14.5853 12.5076C13.9018 11.995 13.006 11.7387 12.1102 11.7388C11.2645 11.7388 10.4189 11.4826 9.77363 10.97C8.48318 9.94483 8.48318 8.28277 9.77363 7.25765C11.0641 6.23252 13.1563 6.23252 14.4468 7.25765L14.9308 7.64217M22.6104 11.7388C22.6104 17.5378 17.9093 22.2388 12.1104 22.2388C6.31136 22.2388 1.61035 17.5378 1.61035 11.7388C1.61035 5.93978 6.31136 1.23877 12.1104 1.23877C17.9093 1.23877 22.6104 5.93978 22.6104 11.7388Z" stroke="#F2994A" stroke-width="2" stroke-linecap="round" stroke-linejoin="round"/>
</svg>
