<svg width="24" height="24" viewBox="0 0 24 24" fill="none" xmlns="http://www.w3.org/2000/svg">
<rect x="0.75" y="1.04102" width="22.5" height="22.5" rx="2.25" fill="#25282C"/>
<path fill-rule="evenodd" clip-rule="evenodd" d="M18.3087 8.6353C18.3159 8.62734 18.3233 8.61951 18.331 8.61184C18.6788 8.26402 18.8704 7.79309 18.8704 7.28621C18.8704 6.77934 18.6788 6.3084 18.331 5.96059C17.9829 5.61246 17.5119 5.4209 17.005 5.4209C16.5059 5.4209 16.0416 5.60666 15.6954 5.94476C15.6905 5.95002 15.6855 5.95522 15.6804 5.96035L14.354 7.28668L17.0057 9.93831L18.3087 8.6353ZM14.7718 5.10136C14.7794 5.09292 14.7872 5.08464 14.7954 5.07652C15.3791 4.49246 16.1638 4.1709 17.005 4.1709C17.846 4.1709 18.631 4.49246 19.2147 5.07652C19.7988 5.66027 20.1204 6.44496 20.1204 7.28621C20.1204 8.11661 19.807 8.8919 19.2372 9.47322C19.2302 9.48095 19.223 9.48854 19.2155 9.496L9.44895 19.2626C9.35261 19.3589 9.23278 19.4172 9.10797 19.4375L4.65871 20.392C4.60926 20.4046 4.55787 20.4112 4.50551 20.4112C4.46207 20.4112 4.41801 20.4065 4.37395 20.3972C4.222 20.3645 4.09488 20.2792 4.00765 20.1645C3.98056 20.129 3.95707 20.0903 3.93786 20.0488C3.90027 19.9678 3.87976 19.8784 3.87988 19.7859C3.87984 19.7359 3.88583 19.6868 3.89728 19.6394L4.85957 15.154C4.88779 15.0227 4.95557 14.91 5.04765 14.8256L13.0047 6.86851C13.0121 6.86024 13.0198 6.85213 13.0278 6.84418C13.0358 6.83614 13.044 6.82836 13.0524 6.82085L14.7718 5.10136ZM6.04277 15.5979L13.4703 8.17043L16.1219 10.822L8.69632 18.2474L5.31892 18.972L6.04277 15.5979Z" fill="#61DAE9"/>
<rect x="0.75" y="1.04102" width="22.5" height="22.5" rx="2.25" stroke="#61DAE9" stroke-width="0.5"/>
</svg>
