<svg width="25" height="26" viewBox="0 0 25 26" fill="none" xmlns="http://www.w3.org/2000/svg">
<mask id="mask0_4600_2379" style="mask-type:alpha" maskUnits="userSpaceOnUse" x="0" y="0" width="25" height="26">
<path d="M2.81037 2.85737H11.2415C12.0143 2.85737 12.6466 2.23237 12.6466 1.46848C12.6466 0.70459 12.0143 0.0795898 11.2415 0.0795898H2.81037C1.26466 0.0795898 0 1.32959 0 2.85737V22.3018C0 23.8296 1.26466 25.0796 2.81037 25.0796H11.2415C12.0143 25.0796 12.6466 24.4546 12.6466 23.6907C12.6466 22.9268 12.0143 22.3018 11.2415 22.3018H2.81037V2.85737Z" fill="#666666"/>
<path d="M24.8013 12.0933L20.8808 8.21829C20.7831 8.11906 20.6576 8.0509 20.5205 8.02255C20.3834 7.9942 20.2408 8.00694 20.111 8.05914C19.9812 8.11135 19.8702 8.20064 19.792 8.31559C19.7139 8.43054 19.6722 8.56592 19.6724 8.7044V11.1905H9.83609C9.06324 11.1905 8.43091 11.8155 8.43091 12.5794C8.43091 13.3433 9.06324 13.9683 9.83609 13.9683H19.6724V16.4544C19.6724 17.0794 20.4312 17.385 20.8668 16.9405L24.7872 13.0655C25.0683 12.8016 25.0683 12.3572 24.8013 12.0933V12.0933Z" fill="#666666"/>
</mask>
<g mask="url(#mask0_4600_2379)">
<rect x="-0.571045" y="0.164062" width="25" height="25" fill="#666666"/>
</g>
</svg>
