<svg width="25" height="25" viewBox="0 0 25 25" fill="none" xmlns="http://www.w3.org/2000/svg">
<path d="M6.3643 24.9727H18.6365C19.1466 25.037 19.6648 24.9832 20.1508 24.8155C20.6369 24.6477 21.0779 24.3705 21.4398 24.0052C21.8018 23.64 22.0749 23.1964 22.2382 22.7088C22.4015 22.2212 22.4505 21.7026 22.3816 21.1931V10.7439C22.4596 10.1291 22.3907 9.50465 22.1804 8.92177C21.9701 8.33888 21.6244 7.81425 21.1718 7.39102L15.1213 1.23539C14.7188 0.797648 14.2193 0.460233 13.6629 0.250157C13.1065 0.040081 12.5087 -0.0368215 11.9173 0.0256058H6.35678C5.84713 -0.0377297 5.32974 0.0168072 4.8445 0.185013C4.35925 0.353218 3.91911 0.6306 3.558 0.995777C3.19689 1.36095 2.92445 1.80417 2.76169 2.29127C2.59893 2.77837 2.55018 3.29634 2.61922 3.80525V21.1931C2.549 21.7029 2.59718 22.222 2.76002 22.7102C2.92286 23.1983 3.19597 23.6424 3.55818 24.008C3.92038 24.3735 4.36194 24.6507 4.84858 24.818C5.33523 24.9853 5.85388 25.0383 6.3643 24.9727ZM6.54915 22.7185C6.32414 22.7487 6.09522 22.7269 5.87996 22.6547C5.6647 22.5826 5.46885 22.4621 5.30745 22.3025C5.14606 22.1428 5.02342 21.9483 4.94897 21.7338C4.87452 21.5193 4.85024 21.2907 4.87799 21.0653V3.94351C4.85115 3.71838 4.87607 3.49009 4.95085 3.27605C5.02562 3.06201 5.14827 2.86787 5.30946 2.70843C5.47064 2.54898 5.6661 2.42844 5.88094 2.35599C6.09578 2.28355 6.32432 2.26111 6.54915 2.29038H11.4574V8.60231C11.4091 8.93527 11.4395 9.27491 11.5459 9.59407C11.6524 9.91323 11.832 10.2031 12.0705 10.4404C12.309 10.6777 12.5997 10.8559 12.9194 10.9608C13.239 11.0657 13.5788 11.0943 13.9116 11.0444H20.1228V21.0578C20.1493 21.2838 20.1239 21.5129 20.0483 21.7276C19.9728 21.9422 19.8491 22.1367 19.6868 22.2963C19.5245 22.4558 19.3279 22.5761 19.112 22.648C18.8961 22.7198 18.6666 22.7414 18.4411 22.711L6.54915 22.7185ZM14.1189 9.05917C13.6471 9.05917 13.4502 8.85178 13.4502 8.37989V2.59546L19.8102 9.05767L14.1189 9.05917Z" fill="#666666"/>
</svg>
