<svg width="16" height="16" viewBox="0 0 16 16" fill="none" xmlns="http://www.w3.org/2000/svg">
<path d="M7.30868 15.4172H8.68868C8.95279 15.4253 9.21143 15.3409 9.41994 15.1785C9.62844 15.0162 9.77372 14.7862 9.83068 14.5282L10.1107 13.3182L10.2887 13.2502L11.3417 13.8992C11.5632 14.0447 11.8293 14.1067 12.0924 14.0741C12.3555 14.0415 12.5984 13.9164 12.7777 13.7212L13.7347 12.7642C13.9307 12.5856 14.0564 12.3428 14.0891 12.0796C14.1217 11.8164 14.0592 11.5503 13.9127 11.3292L13.2637 10.2832L13.3257 10.1122L14.5357 9.83218C14.7921 9.7721 15.0201 9.626 15.1819 9.41821C15.3437 9.21041 15.4293 8.95347 15.4247 8.69018V7.34418C15.4306 7.08057 15.3455 6.82298 15.1835 6.61492C15.0215 6.40685 14.7927 6.26107 14.5357 6.20218L13.3357 5.91518L13.2697 5.73618L13.9187 4.69018C14.0633 4.46726 14.1247 4.2005 14.0922 3.93678C14.0596 3.67306 13.9352 3.42925 13.7407 3.24818L12.7837 2.29118C12.6039 2.0991 12.3625 1.9761 12.1014 1.94358C11.8403 1.91106 11.5761 1.97107 11.3547 2.11318L10.2987 2.75718L10.1077 2.68218L9.82768 1.47218C9.77081 1.21468 9.62598 0.985052 9.4181 0.822799C9.21021 0.660545 8.95228 0.575814 8.68868 0.583182H7.30868C7.04434 0.574125 6.78522 0.658163 6.57651 0.820635C6.36779 0.983108 6.22275 1.2137 6.16668 1.47218L5.88668 2.68218L5.69868 2.75718L4.64268 2.11518C4.42013 1.97275 4.15479 1.91258 3.89257 1.94508C3.63034 1.97759 3.38773 2.10072 3.20668 2.29318L2.24968 3.25018C2.0552 3.43125 1.93076 3.67506 1.8982 3.93878C1.86565 4.2025 1.92707 4.46926 2.07168 4.69218L2.72768 5.73618L2.65268 5.91418L1.46368 6.20118C1.20586 6.25888 0.976142 6.4045 0.813936 6.61305C0.651731 6.8216 0.567144 7.08009 0.574682 7.34418V8.69118C0.568014 8.9553 0.652887 9.21359 0.814914 9.42228C0.976941 9.63096 1.20615 9.7772 1.46368 9.83618L2.66368 10.1162L2.73168 10.2872L2.07868 11.3302C1.9338 11.5518 1.87218 11.8176 1.90477 12.0803C1.93736 12.343 2.06205 12.5857 2.25668 12.7652L3.21368 13.7222C3.39321 13.9171 3.63608 14.0419 3.89904 14.0745C4.162 14.1071 4.428 14.0453 4.64968 13.9002L5.69868 13.2502L5.88368 13.3182L6.16368 14.5282C6.21984 14.7872 6.36533 15.0182 6.57466 15.1807C6.784 15.3432 7.04384 15.427 7.30868 15.4172ZM7.47268 14.1802C7.44976 14.1828 7.42655 14.1808 7.40443 14.1743C7.38231 14.1677 7.36172 14.1568 7.3439 14.1422C7.32608 14.1275 7.31139 14.1094 7.3007 14.089C7.29001 14.0686 7.28354 14.0462 7.28168 14.0232L6.88168 12.3412C6.46342 12.2455 6.06375 12.0816 5.69868 11.8562L4.22168 12.7652C4.18313 12.7929 4.13546 12.8048 4.08843 12.7984C4.0414 12.7921 3.99856 12.7681 3.96868 12.7312L3.24368 12.0062C3.22608 11.9915 3.21158 11.9734 3.20099 11.953C3.1904 11.9327 3.18394 11.9104 3.18199 11.8876C3.18004 11.8647 3.18263 11.8417 3.18961 11.8198C3.1966 11.7979 3.20784 11.7777 3.22268 11.7602L4.13168 10.2842C3.91556 9.9226 3.75414 9.53103 3.65268 9.12218L1.96468 8.72218C1.94204 8.72012 1.92005 8.71345 1.90008 8.70259C1.8801 8.69173 1.86255 8.6769 1.84851 8.65902C1.83446 8.64113 1.82422 8.62057 1.8184 8.59859C1.81259 8.57661 1.81132 8.55367 1.81468 8.53118V7.50118C1.81101 7.47815 1.81201 7.45462 1.81762 7.43198C1.82322 7.40934 1.83332 7.38806 1.84732 7.36941C1.86131 7.35075 1.87891 7.3351 1.89907 7.32338C1.91923 7.31166 1.94155 7.30411 1.96468 7.30118L3.65268 6.90118C3.75192 6.48937 3.90845 6.09351 4.11768 5.72518L3.21768 4.25518C3.20193 4.23676 3.18998 4.2154 3.18251 4.19234C3.17504 4.16928 3.1722 4.14498 3.17415 4.12082C3.1761 4.09666 3.18281 4.07312 3.19388 4.05156C3.20496 4.03 3.22018 4.01084 3.23868 3.99518L3.96368 3.27718C3.99566 3.24115 4.03957 3.21787 4.08733 3.21163C4.1351 3.20538 4.18352 3.21659 4.22368 3.24318L5.69368 4.14318C6.06623 3.92842 6.46622 3.76526 6.88268 3.65818L7.28268 1.97618C7.28454 1.95319 7.29101 1.93081 7.3017 1.91037C7.31239 1.88992 7.32708 1.87184 7.3449 1.85719C7.36272 1.84255 7.38331 1.83163 7.40543 1.8251C7.42755 1.81857 7.45076 1.81656 7.47368 1.81918H8.52468C8.54746 1.81541 8.57079 1.81664 8.59305 1.82279C8.61531 1.82894 8.63596 1.83987 8.65356 1.85481C8.67117 1.86975 8.68531 1.88835 8.695 1.90931C8.70469 1.93027 8.7097 1.95309 8.70968 1.97618L9.11968 3.67618C9.53515 3.77767 9.93365 3.93902 10.3027 4.15518L11.7727 3.25518C11.811 3.22678 11.8588 3.21443 11.9061 3.22078C11.9533 3.22713 11.9963 3.25167 12.0257 3.28918L12.7567 4.00718C12.7752 4.02205 12.7905 4.04053 12.8017 4.06151C12.8128 4.08248 12.8196 4.1055 12.8215 4.12917C12.8235 4.15284 12.8206 4.17666 12.8131 4.19919C12.8055 4.22171 12.7935 4.24246 12.7777 4.26018L11.8777 5.73018C12.0894 6.09811 12.2483 6.49399 12.3497 6.90618L14.0317 7.30618C14.0554 7.30823 14.0785 7.31514 14.0995 7.32648C14.1205 7.33782 14.1389 7.35334 14.1536 7.3721C14.1683 7.39085 14.179 7.41243 14.1851 7.4355C14.1911 7.45856 14.1923 7.48262 14.1887 7.50618V8.52718C14.1913 8.5501 14.1893 8.57331 14.1828 8.59544C14.1762 8.61756 14.1653 8.63814 14.1507 8.65596C14.136 8.67378 14.1179 8.68847 14.0975 8.69916C14.0771 8.70985 14.0547 8.71632 14.0317 8.71818L12.3437 9.11818C12.2415 9.5257 12.0826 9.91685 11.8717 10.2802L12.7717 11.7562C12.8004 11.7907 12.8143 11.8351 12.8106 11.8798C12.8069 11.9245 12.7857 11.9659 12.7517 11.9952L12.0267 12.7262C11.9968 12.7631 11.954 12.7871 11.9069 12.7934C11.8599 12.7998 11.8122 12.7879 11.7737 12.7602L10.2987 11.8562C9.93733 12.084 9.53955 12.248 9.12268 12.3412L8.71268 14.0232C8.7127 14.0463 8.70769 14.0691 8.698 14.0901C8.68831 14.111 8.67417 14.1296 8.65656 14.1446C8.63896 14.1595 8.61831 14.1704 8.59605 14.1766C8.57379 14.1827 8.55046 14.184 8.52768 14.1802H7.47268ZM7.99868 10.5982C8.51036 10.5964 9.01006 10.4432 9.43477 10.1578C9.85947 9.87239 10.1902 9.46764 10.3852 8.99456C10.5801 8.52149 10.6307 8.00127 10.5304 7.49951C10.4302 6.99774 10.1836 6.5369 9.82178 6.17508C9.45997 5.81327 8.99912 5.56668 8.49736 5.46642C7.99559 5.36616 7.47537 5.41671 7.0023 5.6117C6.52923 5.80669 6.12448 6.13739 5.83909 6.5621C5.55371 6.9868 5.40046 7.4865 5.39868 7.99818C5.39868 8.68775 5.67261 9.34906 6.1602 9.83666C6.6478 10.3243 7.30912 10.5982 7.99868 10.5982ZM7.99868 9.42918C7.62247 9.42918 7.26167 9.27973 6.99565 9.01371C6.72963 8.74769 6.58018 8.38689 6.58018 8.01068C6.58018 7.63447 6.72963 7.27367 6.99565 7.00765C7.26167 6.74163 7.62247 6.59218 7.99868 6.59218C8.36837 6.602 8.71962 6.75575 8.97763 7.0207C9.23564 7.28565 9.38002 7.64086 9.38002 8.01068C9.38002 8.3805 9.23564 8.73571 8.97763 9.00066C8.71962 9.26561 8.36837 9.41937 7.99868 9.42918Z" fill="#A6A6A6"/>
</svg>
