<svg width="25" height="25" viewBox="0 0 25 25" fill="none" xmlns="http://www.w3.org/2000/svg">
<path d="M16.4219 1.49121H8.42188C4.55588 1.49121 1.42188 4.62522 1.42188 8.49121V16.4912C1.42188 20.3572 4.55588 23.4912 8.42188 23.4912H16.4219C20.2879 23.4912 23.4219 20.3572 23.4219 16.4912V8.49121C23.4219 4.62522 20.2879 1.49121 16.4219 1.49121Z" stroke="#62EAD2" stroke-width="2"/>
<path d="M7.65959 16.8013L9.30459 13.6493L12.3216 16.1683C12.3882 16.2239 12.4661 16.2645 12.5498 16.2871C12.6336 16.3097 12.7213 16.3139 12.8069 16.2994C12.8924 16.2848 12.9738 16.2519 13.0454 16.2029C13.117 16.1538 13.1771 16.0898 13.2216 16.0153L16.7616 10.1273L17.0616 11.0493C17.1 11.1708 17.1762 11.277 17.2791 11.3523C17.3819 11.4276 17.5061 11.4683 17.6336 11.4683C17.6958 11.4686 17.7576 11.4588 17.8166 11.4393C17.8918 11.4154 17.9616 11.3769 18.022 11.326C18.0823 11.2752 18.132 11.2129 18.1683 11.1427C18.2045 11.0726 18.2265 10.996 18.2331 10.9173C18.2397 10.8386 18.2307 10.7595 18.2066 10.6843L17.4396 8.34928C17.4157 8.27403 17.3772 8.20423 17.3264 8.14388C17.2755 8.08353 17.2132 8.03382 17.143 7.99759C17.0729 7.96136 16.9963 7.93932 16.9176 7.93275C16.839 7.92617 16.7598 7.93519 16.6846 7.95928L14.4046 8.68728C14.2527 8.73568 14.1264 8.84241 14.0532 8.984C13.9801 9.12559 13.9662 9.29044 14.0146 9.44228C14.063 9.59411 14.1697 9.7205 14.3113 9.79364C14.4529 9.86678 14.6177 9.88068 14.7696 9.83228L15.7136 9.53228L12.5546 14.8073L9.48759 12.2443C9.41808 12.1857 9.33617 12.1437 9.24805 12.1214C9.15993 12.0991 9.06791 12.0972 8.97891 12.1157C8.88992 12.1342 8.8063 12.1726 8.73435 12.2282C8.6624 12.2837 8.60401 12.3549 8.56359 12.4363L6.69759 16.1603C6.61258 16.2878 6.58174 16.444 6.61184 16.5943C6.64194 16.7446 6.73052 16.8768 6.85809 16.9618C6.98566 17.0468 7.14177 17.0776 7.29208 17.0475C7.44239 17.0174 7.57458 16.9288 7.65959 16.8013Z" fill="#62EAD2"/>
</svg>
