<svg width="25" height="21" viewBox="0 0 25 21" fill="none" xmlns="http://www.w3.org/2000/svg">
<path d="M3.26153 0.17334C2.83318 0.173186 2.40899 0.257443 2.01322 0.421296C1.61744 0.585149 1.25783 0.825386 0.954938 1.12828C0.652046 1.43117 0.411809 1.79078 0.247956 2.18656C0.0841036 2.58233 -0.00015346 3.00652 2.0982e-07 3.43487V17.5651C-0.00015346 17.9934 0.0841036 18.4176 0.247956 18.8134C0.411809 19.2091 0.652046 19.5688 0.954938 19.8716C1.25783 20.1745 1.61744 20.4148 2.01322 20.5786C2.40899 20.7425 2.83318 20.8267 3.26153 20.8266H21.7385C22.1668 20.8267 22.591 20.7425 22.9868 20.5786C23.3826 20.4148 23.7422 20.1745 24.0451 19.8716C24.348 19.5688 24.5882 19.2091 24.752 18.8134C24.9159 18.4176 25.0002 17.9934 25 17.5651V3.43487C25.0002 3.00661 24.9159 2.58253 24.7522 2.18683C24.5884 1.79112 24.3482 1.43157 24.0455 1.12869C23.7427 0.825814 23.3832 0.585554 22.9876 0.421632C22.592 0.25771 22.1679 0.17334 21.7396 0.17334H3.26153ZM3.26153 2.3473H21.7385C21.8813 2.34715 22.0228 2.37518 22.1548 2.42978C22.2869 2.48438 22.4068 2.56448 22.5078 2.6655C22.6089 2.76652 22.689 2.88648 22.7436 3.0185C22.7982 3.15051 22.8262 3.29201 22.826 3.43487V15.6273L17.7624 11.0724C17.3629 10.7125 16.8442 10.5133 16.3065 10.5133C15.7687 10.5133 15.2501 10.7125 14.8505 11.0724L10.5447 14.9666L8.48302 13.2031C8.08881 12.8646 7.58642 12.6785 7.06684 12.6785C6.54727 12.6785 6.04488 12.8646 5.65067 13.2031L2.17279 16.1992V3.43487C2.17264 3.29191 2.2007 3.15032 2.25538 3.01822C2.31005 2.88613 2.39026 2.76612 2.49141 2.66509C2.59255 2.56405 2.71264 2.48397 2.8448 2.42944C2.97695 2.37491 3.11857 2.347 3.26153 2.3473ZM7.60946 5.60883C7.17949 5.60883 6.75917 5.73633 6.40167 5.97521C6.04416 6.21409 5.76552 6.55362 5.60098 6.95086C5.43643 7.3481 5.39338 7.78521 5.47727 8.20692C5.56115 8.62862 5.7682 9.01599 6.07223 9.32002C6.37627 9.62406 6.76363 9.83111 7.18534 9.91499C7.60705 9.99887 8.04416 9.95582 8.4414 9.79128C8.83864 9.62673 9.17816 9.34809 9.41704 8.99059C9.65592 8.63308 9.78342 8.21277 9.78342 7.7828C9.78342 7.20623 9.55438 6.65327 9.14668 6.24557C8.73899 5.83787 8.18603 5.60883 7.60946 5.60883Z" fill="white"/>
</svg>
