<svg width="27" height="27" viewBox="0 0 27 27" fill="none" xmlns="http://www.w3.org/2000/svg">
<path d="M11 20.5737V23.5C11 24.163 11.2634 24.7989 11.7322 25.2678C12.2011 25.7366 12.837 26 13.5 26C14.163 26 14.7989 25.7366 15.2678 25.2678C15.7366 24.7989 16 24.163 16 23.5V20.5737M13.5 1V2.25ZM2.25 13.5H1ZM5.375 5.375L4.625 4.625ZM21.625 5.375L22.375 4.625ZM26 13.5H24.75ZM21 13.5C21 14.9834 20.5601 16.4334 19.736 17.6668C18.9119 18.9001 17.7406 19.8614 16.3701 20.4291C14.9997 20.9968 13.4917 21.1453 12.0368 20.8559C10.582 20.5665 9.24559 19.8522 8.1967 18.8033C7.14781 17.7544 6.4335 16.418 6.14411 14.9632C5.85472 13.5083 6.00325 12.0003 6.5709 10.6299C7.13856 9.25943 8.09985 8.08809 9.33322 7.26398C10.5666 6.43987 12.0166 6 13.5 6C15.4891 6 17.3968 6.79018 18.8033 8.1967C20.2098 9.60322 21 11.5109 21 13.5Z" fill="#666666"/>
<path d="M11 20.5737V23.5C11 24.163 11.2634 24.7989 11.7322 25.2678C12.2011 25.7366 12.837 26 13.5 26C14.163 26 14.7989 25.7366 15.2678 25.2678C15.7366 24.7989 16 24.163 16 23.5V20.5737M13.5 1V2.25M2.25 13.5H1M5.375 5.375L4.625 4.625M21.625 5.375L22.375 4.625M26 13.5H24.75M21 13.5C21 14.9834 20.5601 16.4334 19.736 17.6668C18.9119 18.9001 17.7406 19.8614 16.3701 20.4291C14.9997 20.9968 13.4917 21.1453 12.0368 20.8559C10.582 20.5665 9.24559 19.8522 8.1967 18.8033C7.14781 17.7544 6.4335 16.418 6.14411 14.9632C5.85472 13.5083 6.00325 12.0003 6.5709 10.6299C7.13856 9.25943 8.09985 8.08809 9.33322 7.26398C10.5666 6.43987 12.0166 6 13.5 6C15.4891 6 17.3968 6.79018 18.8033 8.1967C20.2098 9.60322 21 11.5109 21 13.5Z" stroke="#666666" stroke-width="1.5" stroke-linecap="round" stroke-linejoin="round"/>
</svg>
