<svg width="9" height="9" viewBox="0 0 9 9" fill="none" xmlns="http://www.w3.org/2000/svg">
<path d="M5.14521 0.645215C5.24202 0.742025 5.29272 0.865236 5.29729 1.01485C5.30187 1.16447 5.25558 1.28768 5.15841 1.38449L2.57096 3.97195L8.47195 3.97195C8.62156 3.97195 8.74706 4.02264 8.84845 4.12403C8.94983 4.22541 9.00035 4.35074 9 4.5C9 4.64962 8.94931 4.77512 8.84792 4.8765C8.74653 4.97789 8.62121 5.0284 8.47195 5.02805L2.57096 5.02805L5.15841 7.61551C5.25522 7.71232 5.30152 7.83553 5.29729 7.98515C5.29307 8.13476 5.24237 8.25798 5.14521 8.35479C5.0484 8.4516 4.92519 8.5 4.77558 8.5C4.62596 8.5 4.50275 8.45159 4.40594 8.35479L0.920791 4.86964C0.867985 4.82563 0.830493 4.77054 0.808315 4.70436C0.786137 4.63817 0.775223 4.57005 0.775575 4.5C0.775575 4.42959 0.786489 4.36359 0.808315 4.30198C0.830141 4.24037 0.867633 4.18317 0.920791 4.13036L4.40594 0.645215C4.50275 0.548405 4.62596 0.5 4.77558 0.5C4.92519 0.5 5.0484 0.548405 5.14521 0.645215Z" fill="white"/>
</svg>
