<svg width="17" height="17" viewBox="0 0 17 17" fill="none" xmlns="http://www.w3.org/2000/svg">
<path d="M6.80518 13.7061C8.19141 13.7061 9.46973 13.2578 10.5156 12.5107L14.4502 16.4453C14.6328 16.6279 14.8735 16.7192 15.1309 16.7192C15.6704 16.7192 16.0522 16.3042 16.0522 15.7729C16.0522 15.5239 15.9692 15.2832 15.7866 15.1089L11.877 11.1909C12.6987 10.1118 13.1885 8.77539 13.1885 7.32275C13.1885 3.81152 10.3164 0.939453 6.80518 0.939453C3.30225 0.939453 0.421875 3.80322 0.421875 7.32275C0.421875 10.834 3.29395 13.7061 6.80518 13.7061ZM6.80518 12.3281C4.06592 12.3281 1.7998 10.062 1.7998 7.32275C1.7998 4.5835 4.06592 2.31738 6.80518 2.31738C9.54443 2.31738 11.8105 4.5835 11.8105 7.32275C11.8105 10.062 9.54443 12.3281 6.80518 12.3281Z" fill="#61DAE9"/>
</svg>
