<svg width="27" height="27" viewBox="0 0 27 27" fill="none" xmlns="http://www.w3.org/2000/svg">
<g clip-path="url(#clip0_8939_47782)">
<path d="M1.92244 0.133057H0.0678711V1.98762H1.92244V0.133057Z" fill="#151A21"/>
<path d="M26.0299 0.133057H24.1753V1.98762H26.0299V0.133057Z" fill="#151A21"/>
<path d="M1.92244 1.98755H0.0678711V3.84212H1.92244V1.98755Z" fill="#151A21"/>
<path d="M9.34041 1.98755H7.48584V3.84212H9.34041V1.98755Z" fill="#151A21"/>
<path d="M11.1937 1.98755H9.33911V3.84212H11.1937V1.98755Z" fill="#151A21"/>
<path d="M13.0491 1.98755H11.1946V3.84212H13.0491V1.98755Z" fill="#151A21"/>
<path d="M14.9029 1.98755H13.0483V3.84212H14.9029V1.98755Z" fill="#151A21"/>
<path d="M16.7584 1.98755H14.9038V3.84212H16.7584V1.98755Z" fill="#151A21"/>
<path d="M18.6141 1.98755H16.7595V3.84212H18.6141V1.98755Z" fill="#151A21"/>
<path d="M26.0299 1.98755H24.1753V3.84212H26.0299V1.98755Z" fill="#151A21"/>
<path d="M1.92244 3.84204H0.0678711V5.69661H1.92244V3.84204Z" fill="#151A21"/>
<path d="M7.48689 3.84204H5.63232V5.69661H7.48689V3.84204Z" fill="#151A21"/>
<path d="M9.34041 3.84204H7.48584V5.69661H9.34041V3.84204Z" fill="#151A21"/>
<path d="M11.1937 3.84204H9.33911V5.69661H11.1937V3.84204Z" fill="#151A21"/>
<path d="M13.0491 3.84204H11.1946V5.69661H13.0491V3.84204Z" fill="#151A21"/>
<path d="M14.9029 3.84204H13.0483V5.69661H14.9029V3.84204Z" fill="#151A21"/>
<path d="M16.7584 3.84204H14.9038V5.69661H16.7584V3.84204Z" fill="#151A21"/>
<path d="M18.6141 3.84204H16.7595V5.69661H18.6141V3.84204Z" fill="#151A21"/>
<path d="M20.4674 3.84204H18.6128V5.69661H20.4674V3.84204Z" fill="#151A21"/>
<path d="M26.0299 3.84204H24.1753V5.69661H26.0299V3.84204Z" fill="#151A21"/>
<path d="M1.92244 5.69653H0.0678711V7.5511H1.92244V5.69653Z" fill="#151A21"/>
<path d="M5.63142 5.69653H3.77686V7.5511H5.63142V5.69653Z" fill="#151A21"/>
<path d="M7.48689 5.69653H5.63232V7.5511H7.48689V5.69653Z" fill="#151A21"/>
<path d="M20.4674 5.69653H18.6128V7.5511H20.4674V5.69653Z" fill="#151A21"/>
<path d="M22.3209 5.69653H20.4663V7.5511H22.3209V5.69653Z" fill="#151A21"/>
<path d="M26.0299 5.69653H24.1753V7.5511H26.0299V5.69653Z" fill="#151A21"/>
<path d="M1.92244 7.55103H0.0678711V9.40559H1.92244V7.55103Z" fill="#151A21"/>
<path d="M5.63142 7.55103H3.77686V9.40559H5.63142V7.55103Z" fill="#151A21"/>
<path d="M22.3209 7.55103H20.4663V9.40559H22.3209V7.55103Z" fill="#151A21"/>
<path d="M26.0299 7.55103H24.1753V9.40559H26.0299V7.55103Z" fill="#151A21"/>
<path d="M1.92244 11.261H0.0678711V13.1156H1.92244V11.261Z" fill="#151A21"/>
<path d="M3.77791 11.261H1.92334V13.1156H3.77791V11.261Z" fill="#151A21"/>
<path d="M11.1939 11.261H9.33936V13.1156H11.1939V11.261Z" fill="#62EAD2"/>
<path d="M16.7584 11.261H14.9038V13.1156H16.7584V11.261Z" fill="#62EAD2"/>
<path d="M24.1763 11.261H22.3218V13.1156H24.1763V11.261Z" fill="#151A21"/>
<path d="M26.0299 11.261H24.1753V13.1156H26.0299V11.261Z" fill="#151A21"/>
<path d="M3.77791 13.1155H1.92334V14.97H3.77791V13.1155Z" fill="#151A21"/>
<path d="M11.1939 13.1155H9.33936V14.97H11.1939V13.1155Z" fill="#62EAD2"/>
<path d="M16.7584 13.1155H14.9038V14.97H16.7584V13.1155Z" fill="#62EAD2"/>
<path d="M24.1763 13.1155H22.3218V14.97H24.1763V13.1155Z" fill="#151A21"/>
<path d="M7.48689 16.8235H5.63232V18.6781H7.48689V16.8235Z" fill="#151A21"/>
<path d="M20.4674 16.8235H18.6128V18.6781H20.4674V16.8235Z" fill="#151A21"/>
<path d="M9.34041 18.679H7.48584V20.5335H9.34041V18.679Z" fill="#151A21"/>
<path d="M11.1937 18.679H9.33911V20.5335H11.1937V18.679Z" fill="#151A21"/>
<path d="M13.0491 18.679H11.1946V20.5335H13.0491V18.679Z" fill="#151A21"/>
<path d="M14.9029 18.679H13.0483V20.5335H14.9029V18.679Z" fill="#151A21"/>
<path d="M16.7584 18.679H14.9038V20.5335H16.7584V18.679Z" fill="#151A21"/>
<path d="M18.6141 18.679H16.7595V20.5335H18.6141V18.679Z" fill="#151A21"/>
<path d="M5.63142 20.5334H3.77686V22.388H5.63142V20.5334Z" fill="#151A21"/>
<path d="M22.3209 20.5334H20.4663V22.388H22.3209V20.5334Z" fill="#151A21"/>
<path d="M3.77791 22.3879H1.92334V24.2425H3.77791V22.3879Z" fill="#151A21"/>
<path d="M5.63142 22.3879H3.77686V24.2425H5.63142V22.3879Z" fill="#151A21"/>
<path d="M7.48689 22.3879H5.63232V24.2425H7.48689V22.3879Z" fill="#151A21"/>
<path d="M9.34041 22.3879H7.48584V24.2425H9.34041V22.3879Z" fill="#151A21"/>
<path d="M11.1939 22.3879H9.33936V24.2425H11.1939V22.3879Z" fill="#151A21"/>
<path d="M13.0494 22.3879H11.1948V24.2425H13.0494V22.3879Z" fill="#151A21"/>
<path d="M14.9029 22.3879H13.0483V24.2425H14.9029V22.3879Z" fill="#151A21"/>
<path d="M16.7584 22.3879H14.9038V24.2425H16.7584V22.3879Z" fill="#151A21"/>
<path d="M18.6138 22.3879H16.7593V24.2425H18.6138V22.3879Z" fill="#151A21"/>
<path d="M20.4674 22.3879H18.6128V24.2425H20.4674V22.3879Z" fill="#151A21"/>
<path d="M22.3209 22.3879H20.4663V24.2425H22.3209V22.3879Z" fill="#151A21"/>
<path d="M24.1763 22.3879H22.3218V24.2425H24.1763V22.3879Z" fill="#151A21"/>
<path d="M5.63142 24.2415H3.77686V26.096H5.63142V24.2415Z" fill="#151A21"/>
<path d="M7.48689 24.2415H5.63232V26.096H7.48689V24.2415Z" fill="#151A21"/>
<path d="M9.34041 24.2415H7.48584V26.096H9.34041V24.2415Z" fill="#151A21"/>
<path d="M11.1939 24.2415H9.33936V26.096H11.1939V24.2415Z" fill="#151A21"/>
<path d="M13.0494 24.2415H11.1948V26.096H13.0494V24.2415Z" fill="#151A21"/>
<path d="M18.6138 24.2415H16.7593V26.096H18.6138V24.2415Z" fill="#151A21"/>
<path d="M22.3209 24.2415H20.4663V26.096H22.3209V24.2415Z" fill="#151A21"/>
</g>
<defs>
<clipPath id="clip0_8939_47782">
<rect width="25.9639" height="25.9639" fill="white" transform="translate(0.0678711 0.133057)"/>
</clipPath>
</defs>
</svg>
