<svg width="20" height="20" viewBox="0 0 20 20" fill="none" xmlns="http://www.w3.org/2000/svg">
<path d="M4.85687 0.918691C3.86038 1.13255 2.88234 1.42479 1.93187 1.79269C1.89388 1.86869 1.53188 3.20769 1.13187 4.76469L0.421875 7.60369L1.44788 8.63969L2.47288 9.66469L1.44788 10.6907L0.421875 11.7257L1.15288 14.6127C1.56087 16.1987 1.92188 17.5377 1.95987 17.5847C1.99787 17.6317 3.34687 18.0027 4.95087 18.4107L7.87687 19.1587L8.90287 18.1427L9.92887 17.1167L10.9549 18.1427L11.9799 19.1587L14.8959 18.4087C16.5099 18.0007 17.8489 17.6397 17.8779 17.6087C17.9069 17.5777 18.2669 16.2407 18.6779 14.6267L19.4219 11.7167L18.4059 10.6907L17.3829 9.66469L18.4089 8.63869L19.4219 7.61369L18.6719 4.68869C18.2639 3.08869 17.8929 1.73569 17.8459 1.69769C17.7989 1.65969 16.4589 1.29769 14.8739 0.890691L11.9889 0.158691L10.9539 1.18469L9.92787 2.20969L8.90287 1.18469C8.56363 0.815875 8.19142 0.478809 7.79087 0.177691C7.73387 0.177691 6.41388 0.519691 4.85687 0.918691ZM8.07587 2.73269L8.74088 3.39769L7.76288 4.37569L6.79388 5.34469L5.54987 4.09969L4.30588 2.85869L5.80587 2.46969C6.64187 2.26069 7.33488 2.08069 7.36287 2.08069C7.61884 2.27713 7.85739 2.49527 8.07587 2.73269ZM14.1349 2.50469L15.5499 2.85569L14.3059 4.09969L13.0619 5.34369L12.0929 4.37469L11.1149 3.39669L11.7799 2.73169C12.1799 2.32369 12.4919 2.08569 12.5869 2.11469C12.6629 2.13369 13.3659 2.31469 14.1349 2.50469ZM4.62887 7.50469L3.65987 8.48269L2.99487 7.81769L2.33987 7.14869L2.72887 5.60069L3.12188 4.04269L4.36287 5.28669L5.60687 6.53069L4.62887 7.50469ZM16.8609 7.81769L16.1959 8.48269L15.2269 7.50469L14.2489 6.53569L15.4839 5.30069L16.7219 4.05869L17.1219 5.60669L17.5219 7.14869L16.8609 7.81769ZM10.9219 5.58169L11.8719 6.53169L10.8939 7.50969L9.92488 8.47869L8.95988 7.50869L7.98187 6.53069L8.93188 5.58069C9.45388 5.05869 9.90088 4.63069 9.93188 4.63069C9.96288 4.63069 10.4029 5.05869 10.9219 5.58169ZM7.79087 8.71569L8.74088 9.66569L7.76288 10.6437L6.79388 11.6127L5.82188 10.6427L4.84387 9.66469L5.79388 8.71469C6.31588 8.19269 6.76288 7.76469 6.79388 7.76469C6.82488 7.76469 7.26888 8.19269 7.79087 8.71569ZM14.0589 8.71569L15.0089 9.66569L14.0309 10.6437L13.0619 11.6127L12.0929 10.6437L11.1149 9.66569L12.0649 8.71569C12.5869 8.19369 13.0339 7.76569 13.0649 7.76569C13.0959 7.76569 13.5369 8.19269 14.0589 8.71569ZM4.65887 11.8497L5.60887 12.7997L4.36287 14.0427L3.12188 15.2867L2.73288 13.7297L2.34388 12.1817L2.97988 11.5357C3.19014 11.3054 3.4189 11.0927 3.66388 10.8997C3.68888 10.8997 4.13488 11.3267 4.65788 11.8487L4.65887 11.8497ZM10.9269 11.8497L11.8769 12.7997L10.8989 13.7777L9.92988 14.7467L8.96087 13.7777L7.98287 12.7997L8.93287 11.8497C9.45487 11.3277 9.90187 10.8997 9.93287 10.8997C9.96387 10.8997 10.4029 11.3267 10.9219 11.8487L10.9269 11.8497ZM16.8809 11.5367L17.5169 12.1827L17.1219 13.6727C17.004 14.1813 16.8551 14.6823 16.6759 15.1727C16.6379 15.1727 16.0869 14.6407 15.4319 13.9857L14.2489 12.7987L15.1989 11.8487C15.7209 11.3267 16.1679 10.8987 16.1989 10.8987C16.4429 11.0921 16.6706 11.3052 16.8799 11.5357L16.8809 11.5367ZM7.79087 14.9827L8.74088 15.9327L8.07587 16.5977L7.41187 17.2587L5.87288 16.8587L4.32188 16.4587L5.53088 15.2487C6.19588 14.5747 6.76588 14.0327 6.79388 14.0327C6.82188 14.0327 7.26888 14.4587 7.79087 14.9827ZM14.2959 15.2197C14.7044 15.6005 15.0854 16.0098 15.4359 16.4447C15.4069 16.4637 14.7239 16.6537 13.9169 16.8717L12.4449 17.2607L11.7799 16.5957L11.1149 15.9307L12.0649 14.9807C12.5869 14.4587 13.0339 14.0307 13.0649 14.0307C13.0959 14.0307 13.6419 14.5657 14.2969 15.2207L14.2959 15.2197Z" fill="white"/>
</svg>
