<svg width="80" height="81" viewBox="0 0 80 81" fill="none" xmlns="http://www.w3.org/2000/svg">
<path d="M37.1881 27.5527C37.4368 27.5527 37.6752 27.454 37.851 27.2781C38.0268 27.1023 38.1256 26.8639 38.1256 26.6152V23.1777H42.1881C42.4368 23.1777 42.6752 23.079 42.851 22.9031C43.0268 22.7273 43.1256 22.4889 43.1256 22.2402C43.1256 21.9916 43.0268 21.7531 42.851 21.5773C42.6752 21.4015 42.4368 21.3027 42.1881 21.3027H38.1256V18.1777H42.8131C43.0618 18.1777 43.3002 18.079 43.476 17.9031C43.6518 17.7273 43.7506 17.4889 43.7506 17.2402C43.7506 16.9916 43.6518 16.7531 43.476 16.5773C43.3002 16.4015 43.0618 16.3027 42.8131 16.3027H37.1881C36.9395 16.3027 36.701 16.4015 36.5252 16.5773C36.3494 16.7531 36.2506 16.9916 36.2506 17.2402V26.6152C36.2506 26.8639 36.3494 27.1023 36.5252 27.2781C36.701 27.454 36.9395 27.5527 37.1881 27.5527Z" fill="white" fill-opacity="0.3"/>
<path d="M27.8131 27.5527C28.0618 27.5527 28.3002 27.454 28.476 27.2781C28.6518 27.1023 28.7506 26.8639 28.7506 26.6152V20.6246L32.6344 27.0974C32.7399 27.2731 32.9001 27.4095 33.0904 27.4855C33.2808 27.5615 33.4908 27.573 33.6883 27.5183C33.8858 27.4636 34.06 27.3457 34.1841 27.1826C34.3083 27.0195 34.3755 26.8202 34.3756 26.6152V17.2402C34.3756 16.9916 34.2768 16.7531 34.101 16.5773C33.9252 16.4015 33.6868 16.3027 33.4381 16.3027C33.1895 16.3027 32.951 16.4015 32.7752 16.5773C32.5994 16.7531 32.5006 16.9916 32.5006 17.2402V23.2309L28.617 16.758C28.5115 16.5822 28.3513 16.4459 28.161 16.3698C27.9706 16.2937 27.7605 16.2822 27.5629 16.3369C27.3654 16.3916 27.1912 16.5095 27.067 16.6727C26.9429 16.8359 26.8756 17.0352 26.8756 17.2402V26.6152C26.8756 26.8639 26.9744 27.1023 27.1502 27.2781C27.326 27.454 27.5645 27.5527 27.8131 27.5527Z" fill="white" fill-opacity="0.3"/>
<path d="M46.5631 18.1777H48.4381V26.6152C48.4381 26.8639 48.5369 27.1023 48.7127 27.2781C48.8885 27.454 49.127 27.5527 49.3756 27.5527C49.6243 27.5527 49.8627 27.454 50.0385 27.2781C50.2143 27.1023 50.3131 26.8639 50.3131 26.6152V18.1777H52.1881C52.4368 18.1777 52.6752 18.079 52.851 17.9031C53.0268 17.7273 53.1256 17.4889 53.1256 17.2402C53.1256 16.9916 53.0268 16.7531 52.851 16.5773C52.6752 16.4015 52.4368 16.3027 52.1881 16.3027H46.5631C46.3145 16.3027 46.076 16.4015 45.9002 16.5773C45.7244 16.7531 45.6256 16.9916 45.6256 17.2402C45.6256 17.4889 45.7244 17.7273 45.9002 17.9031C46.076 18.079 46.3145 18.1777 46.5631 18.1777Z" fill="white" fill-opacity="0.3"/>
<path d="M77.5006 48.5215V36.9277C77.498 35.2429 76.8476 33.6236 75.6843 32.405C74.5209 31.1863 72.9335 30.4616 71.2506 30.3809V25.4401C71.2487 23.7002 70.5567 22.0321 69.3264 20.8018C68.0961 19.5715 66.428 18.8795 64.6881 18.8776H59.0704V13.6237C59.0691 12.8011 58.852 11.9933 58.4407 11.281C58.0294 10.5686 57.4384 9.97668 56.7267 9.56429L42.3443 1.26101C41.6314 0.850712 40.8232 0.634766 40.0006 0.634766C39.178 0.634766 38.3698 0.850712 37.6568 1.26101L23.2745 9.56429C22.5628 9.9767 21.9718 10.5686 21.5605 11.281C21.1492 11.9933 20.9321 12.8011 20.9307 13.6237V18.8776H6.87559C3.11122 18.8619 -0.0715935 22.0598 0.000594018 25.6776V73.8027C0.0024965 75.5426 0.694512 77.2107 1.92481 78.441C3.1551 79.6713 4.82319 80.3633 6.56309 80.3652H70.9381C72.678 80.3633 74.3461 79.6713 75.5764 78.441C76.8067 77.2107 77.4987 75.5426 77.5006 73.8027V63.459C78.1863 63.3837 78.8202 63.0585 79.2813 62.5454C79.7425 62.0324 79.9985 61.3675 80.0006 60.6777V51.3027C79.9985 50.6129 79.7425 49.948 79.2813 49.435C78.8202 48.922 78.1863 48.5968 77.5006 48.5215ZM59.0704 30.2313V20.7526H64.6881C65.9309 20.7539 67.1224 21.2482 68.0011 22.127C68.8799 23.0058 69.3742 24.1973 69.3756 25.4401V30.3652H59.0604C59.0618 30.3207 59.0704 30.2757 59.0704 30.2313ZM22.8057 13.6237C22.8066 13.1301 22.9369 12.6454 23.1837 12.218C23.4305 11.7905 23.785 11.4353 24.212 11.1877L38.5943 2.88461C39.0222 2.63867 39.5071 2.50925 40.0006 2.50925C40.4941 2.50925 40.979 2.63867 41.4068 2.88461L55.7892 11.1877C56.2162 11.4353 56.5708 11.7905 56.8175 12.218C57.0643 12.6454 57.1946 13.1301 57.1954 13.6237V30.2313C57.1954 30.2754 57.1875 30.3207 57.1853 30.3651H22.8161C22.8137 30.3207 22.8057 30.2754 22.8057 30.2313V13.6237ZM6.87559 20.7526H20.9307V30.2313C20.9307 30.2757 20.9395 30.3207 20.9409 30.3651H6.88356C4.28684 30.3963 1.87013 28.0621 1.87559 25.5621C1.88122 22.9999 4.22247 20.7526 6.87559 20.7526ZM1.87559 30.0366C2.51241 30.7179 3.27981 31.2641 4.13208 31.6427C4.98436 32.0213 5.90409 32.2245 6.83653 32.2402H70.9381C72.1809 32.2416 73.3724 32.7359 74.2511 33.6147C75.1299 34.4935 75.6242 35.6849 75.6256 36.9277V38.1851C68.6778 38.1952 24.7414 38.2591 6.24763 38.2899C3.95903 38.3477 1.96138 36.3754 1.87559 34.1046V30.0366ZM75.6256 73.8023C75.6242 75.0451 75.1299 76.2365 74.2511 77.1153C73.3724 77.9941 72.1809 78.4884 70.9381 78.4898H6.56309C5.32031 78.4884 4.12882 77.9941 3.25004 77.1153C2.37126 76.2365 1.87696 75.0451 1.87559 73.8023V70.3371C3.22434 71.7298 5.08278 72.5577 6.88059 72.5527L75.6256 72.1951V73.8023ZM75.6256 70.3195L6.87263 70.6777C4.59403 70.7457 1.96981 68.5427 1.87559 66.1991V38.3652C2.44696 38.9375 3.12587 39.3912 3.87325 39.7001C4.62063 40.0091 5.42173 40.1671 6.23044 40.1652H6.25247C24.742 40.134 68.6704 40.0705 75.6256 40.0604V48.4902H66.1743C61.9726 48.4902 58.5025 51.8007 58.4387 55.8705C58.2887 59.9465 61.8615 63.5759 65.9387 63.4902H75.6262L75.6256 70.3195ZM78.1256 60.6773C78.1253 60.9258 78.0264 61.1641 77.8507 61.3399C77.6749 61.5156 77.4366 61.6145 77.1881 61.6148H65.9381C62.8803 61.6791 60.2009 58.9566 60.3131 55.8995C60.3614 52.8479 62.9907 50.3652 66.1743 50.3652H77.1881C77.4367 50.3655 77.675 50.4643 77.8507 50.6401C78.0265 50.8159 78.1253 51.0542 78.1256 51.3027V60.6773Z" fill="white" fill-opacity="0.3"/>
<path d="M66.8756 52.8652C66.2575 52.8652 65.6534 53.0485 65.1395 53.3919C64.6256 53.7353 64.225 54.2233 63.9885 54.7944C63.752 55.3654 63.6901 55.9937 63.8107 56.5999C63.9312 57.2061 64.2289 57.7629 64.6659 58.1999C65.1029 58.637 65.6598 58.9346 66.266 59.0552C66.8721 59.1758 67.5005 59.1139 68.0715 58.8774C68.6425 58.6408 69.1306 58.2403 69.474 57.7264C69.8173 57.2125 70.0006 56.6083 70.0006 55.9902C69.9997 55.1617 69.6701 54.3674 69.0843 53.7816C68.4984 53.1957 67.7041 52.8662 66.8756 52.8652ZM66.8756 57.2402C66.6284 57.2402 66.3867 57.1669 66.1811 57.0296C65.9756 56.8922 65.8154 56.697 65.7208 56.4686C65.6262 56.2402 65.6014 55.9888 65.6496 55.7464C65.6979 55.5039 65.8169 55.2812 65.9917 55.1063C66.1665 54.9315 66.3893 54.8125 66.6317 54.7643C66.8742 54.716 67.1256 54.7408 67.354 54.8354C67.5824 54.93 67.7776 55.0902 67.9149 55.2958C68.0523 55.5013 68.1256 55.743 68.1256 55.9902C68.1252 56.3216 67.9933 56.6393 67.759 56.8736C67.5247 57.1079 67.207 57.2398 66.8756 57.2402Z" fill="white" fill-opacity="0.3"/>
</svg>
