<svg width="25" height="25" viewBox="0 0 25 25" fill="none" xmlns="http://www.w3.org/2000/svg">
<path d="M12.6072 0.888225C8.46093 0.877349 4.81222 3.02253 2.72685 6.26342C2.63441 6.40752 2.73773 6.59784 2.90901 6.59784H4.82037C4.95088 6.59784 5.07323 6.54074 5.15479 6.44014C5.34511 6.20904 5.54903 5.98609 5.76382 5.77402C6.65017 4.89039 7.68062 4.19436 8.82798 3.7104C10.0134 3.21013 11.275 2.95456 12.5773 2.95456C13.8796 2.95456 15.1412 3.20741 16.3266 3.7104C17.474 4.19436 18.5044 4.89039 19.3908 5.77402C20.2771 6.65765 20.9704 7.6881 21.4571 8.83274C21.9601 10.0182 22.2129 11.277 22.2129 12.5793C22.2129 13.8817 21.9574 15.1405 21.4571 16.3259C20.9731 17.4706 20.2771 18.501 19.3908 19.3847C18.5044 20.2683 17.474 20.9643 16.3266 21.4483C15.1402 21.9494 13.8651 22.2064 12.5773 22.2041C11.275 22.2041 10.0134 21.9485 8.82798 21.4483C7.68287 20.9648 6.6423 20.264 5.76382 19.3847C5.54903 19.1699 5.34783 18.9469 5.15479 18.7185C5.07323 18.6179 4.94816 18.5608 4.82037 18.5608H2.90901C2.73773 18.5608 2.63169 18.7512 2.72685 18.8953C4.8095 22.128 8.4419 24.2704 12.5773 24.2704C18.9992 24.2704 24.214 19.1019 24.2793 12.699C24.3445 6.19273 19.1216 0.904538 12.6072 0.888225ZM9.16294 15.6245V13.5581H0.625712C0.506082 13.5581 0.408203 13.4602 0.408203 13.3406V11.8181C0.408203 11.6984 0.506082 11.6005 0.625712 11.6005H9.16294V9.53421C9.16294 9.35205 9.37501 9.24873 9.51639 9.36292L13.3745 12.408C13.4005 12.4284 13.4215 12.4544 13.4359 12.4841C13.4504 12.5137 13.4579 12.5463 13.4579 12.5793C13.4579 12.6123 13.4504 12.6449 13.4359 12.6746C13.4215 12.7043 13.4005 12.7303 13.3745 12.7506L9.51639 15.7958C9.37501 15.9072 9.16294 15.8066 9.16294 15.6245Z" fill="white"/>
</svg>
