<svg width="40" height="41" viewBox="0 0 40 41" fill="none" xmlns="http://www.w3.org/2000/svg">
<path d="M20 40.9199C31.0457 40.9199 40 31.9656 40 20.9199C40 9.87423 31.0457 0.919922 20 0.919922C8.95431 0.919922 0 9.87423 0 20.9199C0 31.9656 8.95431 40.9199 20 40.9199Z" fill="#D19F77"/>
<path d="M38.661 20.9289C38.661 10.6214 30.3051 2.26548 19.9976 2.26548C9.69012 2.26548 1.33423 10.6214 1.33423 20.9289C1.33423 31.2364 9.69012 39.5923 19.9976 39.5923C30.3051 39.5923 38.661 31.2364 38.661 20.9289Z" fill="#B8754E"/>
<path d="M27.9547 16.894L35.8225 23.2587C35.9498 22.3775 36.0135 21.4717 35.989 20.5464C35.7834 11.7141 28.4541 4.72262 19.6218 4.92825C10.7895 5.13388 3.79806 12.4631 4.00369 21.2954C4.20932 30.1278 11.5386 37.1192 20.3709 36.9136C21.1053 36.894 21.8299 36.8254 22.5349 36.7128L12.038 24.2967C12.038 24.2967 21.2913 26.6712 27.9449 16.894H27.9547Z" fill="#83372C"/>
<path d="M35.4944 24.8989L34.5789 27.5134C34.9558 26.6762 35.2594 25.7998 35.4944 24.8989Z" fill="#CF5347"/>
<path d="M34.5791 27.5183L35.4946 24.9038C35.6317 24.3653 35.7443 23.8169 35.8227 23.2637L27.9548 16.8989C25.4089 20.8353 19.9989 22.3971 19.9989 22.3971L12.043 16.8989V25.0948L22.5399 36.7178C27.9353 35.8561 32.4053 32.3114 34.5791 27.5183Z" fill="#7C322A"/>
<path d="M19.9988 22.3927L27.9547 16.8945V25.0953L19.9988 30.613V22.3927Z" fill="#B8754E"/>
<path d="M19.9989 22.3922L12.0479 16.894V25.0948L19.9989 30.6125V22.3922Z" fill="#D49568"/>
</svg>
