<svg width="25" height="25" viewBox="0 0 25 25" fill="none" xmlns="http://www.w3.org/2000/svg">
<path d="M22.6541 1.25903H2.34362C1.72205 1.25903 1.12595 1.50595 0.686437 1.94546C0.246926 2.38497 1.03762e-05 2.98108 1.03762e-05 3.60264V14.9491C-0.00116766 15.3439 0.097982 15.7325 0.288153 16.0784C0.478325 16.4244 0.753282 16.7163 1.08721 16.9269L11.2425 23.377C11.6188 23.6148 12.0548 23.741 12.5 23.741C12.9452 23.741 13.3812 23.6148 13.7575 23.377L23.9128 16.9269C24.2466 16.7162 24.5214 16.4242 24.7116 16.0783C24.9017 15.7324 25.001 15.3439 25 14.9491V3.60264C25 3.29468 24.9393 2.98974 24.8214 2.70525C24.7035 2.42076 24.5306 2.16231 24.3128 1.94465C24.0949 1.727 23.8363 1.55442 23.5517 1.43677C23.2671 1.31913 22.9621 1.25873 22.6541 1.25903ZM1.56279 14.9445V3.60264C1.56279 3.39555 1.64506 3.19695 1.79149 3.05052C1.93792 2.90408 2.13653 2.82182 2.34362 2.82182H5.48748C5.4782 2.85636 5.47133 2.8915 5.4669 2.927V17.8586L1.92291 15.6076C1.81203 15.537 1.72078 15.4395 1.65763 15.3242C1.59448 15.2088 1.56146 15.0795 1.56165 14.948L1.56279 14.9445ZM12.9184 22.0542C12.7932 22.1339 12.6478 22.1762 12.4994 22.1762C12.351 22.1762 12.2057 22.1339 12.0804 22.0542L9.94604 20.5212L9.79857 2.927C9.79414 2.8915 9.78726 2.85636 9.77799 2.82182H15.2312C15.2219 2.85636 15.215 2.8915 15.2106 2.927L15.1854 20.5212L12.9184 22.0542ZM23.4361 14.9491C23.4363 15.0806 23.4032 15.21 23.3401 15.3253C23.2769 15.4406 23.1857 15.5381 23.0748 15.6088L19.5308 17.8598V2.92585C19.5264 2.89036 19.5195 2.85522 19.5102 2.82068H22.6564C22.8635 2.82068 23.0621 2.90294 23.2085 3.04937C23.3549 3.19581 23.4372 3.39441 23.4372 3.6015L23.4361 14.9491Z" fill="#666666"/>
</svg>
