<svg width="9" height="9" viewBox="0 0 9 9" fill="none" xmlns="http://www.w3.org/2000/svg">
<path d="M3.85479 8.35478C3.75798 8.25798 3.70728 8.13476 3.70271 7.98515C3.69813 7.83553 3.74442 7.71232 3.84159 7.61551L6.42904 5.02805H0.528055C0.37844 5.02805 0.252939 4.97736 0.151553 4.87597C0.0501669 4.77459 -0.000350208 4.64926 1.82717e-06 4.5C1.82717e-06 4.35038 0.0506949 4.22488 0.152081 4.1235C0.253467 4.02211 0.378792 3.9716 0.528055 3.97195H6.42904L3.84159 1.38449C3.74478 1.28768 3.69848 1.16447 3.70271 1.01485C3.70693 0.865236 3.75763 0.742024 3.85479 0.645214C3.9516 0.548405 4.07481 0.5 4.22442 0.5C4.37404 0.5 4.49725 0.548405 4.59406 0.645214L8.07921 4.13036C8.13202 4.17437 8.16951 4.22946 8.19169 4.29564C8.21386 4.36183 8.22478 4.42994 8.22443 4.5C8.22443 4.57041 8.21351 4.63641 8.19169 4.69802C8.16986 4.75963 8.13237 4.81683 8.07921 4.86964L4.59406 8.35478C4.49725 8.45159 4.37404 8.5 4.22442 8.5C4.07481 8.5 3.9516 8.45159 3.85479 8.35478Z" fill="white"/>
</svg>
