<svg width="9" height="10" viewBox="0 0 9 10" fill="none" xmlns="http://www.w3.org/2000/svg">
<path d="M2.36205 8.49274C2.25675 8.38744 2.2041 8.26277 2.2041 8.11873C2.2041 7.97496 2.25675 7.85043 2.36205 7.74514L5.44723 4.65995L2.35152 1.56424C2.25324 1.46596 2.2041 1.34312 2.2041 1.1957C2.2041 1.04829 2.25675 0.921932 2.36205 0.816636C2.46734 0.71134 2.59201 0.658691 2.73606 0.658691C2.87982 0.658691 3.00435 0.71134 3.10965 0.816636L6.64761 4.36512C6.68973 4.40724 6.71963 4.45287 6.73732 4.50201C6.75473 4.55115 6.76343 4.60379 6.76343 4.65995C6.76343 4.71611 6.75473 4.76876 6.73732 4.8179C6.71963 4.86704 6.68973 4.91266 6.64761 4.95478L3.09912 8.50327C3.00084 8.60155 2.87982 8.65068 2.73606 8.65068C2.59201 8.65068 2.46734 8.59804 2.36205 8.49274Z" fill="white" stroke="white"/>
</svg>
