<svg width="14" height="15" viewBox="0 0 14 15" fill="none" xmlns="http://www.w3.org/2000/svg">
<path d="M14 13.7678L10.0893 9.85711C11.0291 8.72892 11.4977 7.28185 11.3977 5.81693C11.2977 4.35202 10.6368 2.98205 9.55246 1.99202C8.46811 1.00199 7.04382 0.468119 5.57588 0.501474C4.10793 0.534828 2.70936 1.13284 1.6711 2.1711C0.632837 3.20936 0.0348283 4.60793 0.00147384 6.07588C-0.0318806 7.54382 0.501988 8.96811 1.49202 10.0525C2.48205 11.1368 3.85202 11.7977 5.31693 11.8977C6.78185 11.9977 8.22892 11.5291 9.35711 10.5893L13.2678 14.5L14 13.7678ZM1.05418 6.21468C1.05418 5.29292 1.32752 4.39186 1.83962 3.62545C2.35172 2.85903 3.07959 2.26168 3.93118 1.90894C4.78278 1.5562 5.71985 1.46391 6.62389 1.64373C7.52794 1.82356 8.35836 2.26743 9.01014 2.91921C9.66193 3.57099 10.1058 4.40141 10.2856 5.30546C10.4654 6.20951 10.3732 7.14658 10.0204 7.99817C9.66767 8.84976 9.07032 9.57763 8.30391 10.0897C7.53749 10.6018 6.63644 10.8752 5.71468 10.8752C4.47906 10.8738 3.29444 10.3823 2.42072 9.50863C1.54701 8.63492 1.05555 7.4503 1.05418 6.21468Z" fill="#C0C7CE"/>
</svg>
