<svg width="20" height="20" viewBox="0 0 20 20" fill="none" xmlns="http://www.w3.org/2000/svg">
<path fill-rule="evenodd" clip-rule="evenodd" d="M13.9231 0.256834C14.3215 0.151429 14.7388 0.138842 15.1429 0.220041C15.5469 0.30124 15.927 0.474061 16.2537 0.725203C16.5805 0.976346 16.8453 1.29911 17.0278 1.66867C17.2102 2.03822 17.3054 2.4447 17.3061 2.85683V3.66883C17.6604 3.66883 18.0112 3.73871 18.3384 3.87448C18.6657 4.01024 18.9629 4.20921 19.2132 4.46001C19.4634 4.71081 19.6617 5.0085 19.7967 5.33604C19.9318 5.66359 20.0009 6.01455 20.0001 6.36883V17.1388C20.0001 17.8533 19.7163 18.5386 19.211 19.0438C18.7058 19.549 18.0206 19.8328 17.3061 19.8328H2.94009C2.2256 19.8328 1.54037 19.549 1.03515 19.0438C0.529925 18.5386 0.246094 17.8533 0.246094 17.1388V5.95083C0.246771 5.35774 0.443148 4.78145 0.804763 4.31135C1.16638 3.84125 1.67302 3.50362 2.24609 3.35083L13.9231 0.256834ZM8.04609 3.66883L14.3841 1.99083C14.517 1.95603 14.6561 1.95211 14.7908 1.97939C14.9254 2.00667 15.0521 2.06442 15.161 2.14821C15.2698 2.232 15.3581 2.3396 15.419 2.46278C15.4798 2.58596 15.5117 2.72144 15.5121 2.85883V3.66883H8.04609ZM17.3061 5.46883H2.94009C2.7014 5.46883 2.47248 5.56366 2.3037 5.73244C2.13491 5.90122 2.04009 6.13014 2.04009 6.36883V17.1388C2.04009 17.3775 2.13491 17.6064 2.3037 17.7752C2.47248 17.944 2.7014 18.0388 2.94009 18.0388H17.3061C17.5448 18.0388 17.7737 17.944 17.9425 17.7752C18.1113 17.6064 18.2061 17.3775 18.2061 17.1388V14.4448H15.5101C15.152 14.4517 14.7961 14.3872 14.4633 14.2549C14.1305 14.1226 13.8274 13.9253 13.5717 13.6745C13.316 13.4237 13.1129 13.1245 12.9743 12.7943C12.8356 12.464 12.7642 12.1095 12.7642 11.7513C12.7642 11.3932 12.8356 11.0386 12.9743 10.7084C13.1129 10.3782 13.316 10.0789 13.5717 9.82813C13.8274 9.57733 14.1305 9.38003 14.4633 9.24777C14.7961 9.1155 15.152 9.05093 15.5101 9.05783H18.2041V6.36883C18.2041 6.13049 18.1095 5.90187 17.9412 5.73314C17.7728 5.56442 17.5444 5.46936 17.3061 5.46883ZM18.2061 10.8558H15.5101C15.2714 10.8558 15.0425 10.9507 14.8737 11.1194C14.7049 11.2882 14.6101 11.5171 14.6101 11.7558C14.6101 11.9945 14.7049 12.2234 14.8737 12.3922C15.0425 12.561 15.2714 12.6558 15.5101 12.6558H18.2041L18.2061 10.8558Z" fill="white"/>
</svg>
